<?xml version="1.0" encoding="UTF-8" standalone="no"?>
<!-- Created with Inkscape (http://www.inkscape.org/) -->
<svg
   xmlns:dc="http://purl.org/dc/elements/1.1/"
   xmlns:cc="http://web.resource.org/cc/"
   xmlns:rdf="http://www.w3.org/1999/02/22-rdf-syntax-ns#"
   xmlns:svg="http://www.w3.org/2000/svg"
   xmlns="http://www.w3.org/2000/svg"
   xmlns:sodipodi="http://sodipodi.sourceforge.net/DTD/sodipodi-0.dtd"
   xmlns:inkscape="http://www.inkscape.org/namespaces/inkscape"
   width="744.09448819"
   height="750.3622047"
   id="svg2"
   sodipodi:version="0.32"
   inkscape:version="0.45.1"
   sodipodi:docbase="/home/vedran/Documents/etf"
   sodipodi:docname="etf-logo.svg"
   inkscape:output_extension="org.inkscape.output.svg.inkscape">
  <defs
     id="defs4" />
  <sodipodi:namedview
     id="base"
     pagecolor="#ffffff"
     bordercolor="#666666"
     borderopacity="1.0"
     gridtolerance="10000"
     guidetolerance="10"
     objecttolerance="10"
     inkscape:pageopacity="0.0"
     inkscape:pageshadow="2"
     inkscape:zoom="0.49497475"
     inkscape:cx="-38.355248"
     inkscape:cy="675.28804"
     inkscape:document-units="px"
     inkscape:current-layer="layer1"
     inkscape:window-width="1024"
     inkscape:window-height="713"
     inkscape:window-x="0"
     inkscape:window-y="0"
     showguides="true"
     inkscape:guide-bbox="true">
    <sodipodi:guide
       orientation="horizontal"
       position="714.64286"
       id="guide2241" />
  </sodipodi:namedview>
  <metadata
     id="metadata7">
    <rdf:RDF>
      <cc:Work
         rdf:about="">
        <dc:format>image/svg+xml</dc:format>
        <dc:type
           rdf:resource="http://purl.org/dc/dcmitype/StillImage" />
      </cc:Work>
    </rdf:RDF>
  </metadata>
  <g
     inkscape:label="Layer 1"
     inkscape:groupmode="layer"
     id="layer1">
    <path
       style="fill:#0266ae;fill-opacity:1;fill-rule:evenodd;stroke:none;stroke-width:1px;stroke-linecap:butt;stroke-linejoin:miter;stroke-opacity:1"
       d="m574.837814,16.508726c-62.84157,-0.11355 -104.77677,68.375 -108.4375,75.25c-3.80969,7.15479 -76.09376,146.4375 -76.09375,146.4375l-177.125,-2.15625c-145.11816,0.60774 -195.91483,91.3066 -196.0625,153.9375c0.28129,111.45625 111.90566,104.19192 127.125,104.28125c14.8622,0.08935 253.71875,0.00002 253.71875,0l-116.9375,224.28125l-2.125,2.5c90.71429,15 140.71876,-89.28123 140.71875,-89.28125l-0.71875,0l86.40625,-164.28125l87.5,-0.375l0,-8.5625l-82.84375,-0.34375c0,0 64.75291,-124.05524 69.65625,-133.59375c20.96857,-40.7901 39.28123,-41.06251 39.28125,-41.0625l72.5,0l9.625,-10.71875c0,0 -167.86158,0.375 -175.71875,0.375c-7.85714,0 -17.125,12.125 -17.125,12.125l-91.78125,173.21875c0,0 -5.72322,0.34374 -21.4375,0.34375c-15.71429,0 -7.84375,-20.34375 -7.84375,-20.34375l96.78125,-184.65625l227.125,1.4375l13.59375,-17.84375l-231.4375,0l113.9375,-220c0,0 0.8223,-0.9086 -32.28125,-0.96875zm-242.09375,236.4375c22.19867,-0.07534 49.71875,0.25 49.71875,0.25l-57.15625,110c-0.00001,0 0.21551,-0.10008 -15.21875,0.65625c-18.67901,0.91533 -55.08976,-17.65325 -54.78125,-54.25c0.26261,-30.8488 38.5759,-55.87054 58.21875,-56.40625c5,-0.13393 11.81919,-0.22489 19.21875,-0.25zm-15.28125,124.15625c0,0 -18.64065,28.48563 -18.21875,51.09375c0.75838,40.63882 25,39.28126 25,39.28125l87.875,0l-6.8125,12.5l-172.5,-0.375c0,0 -49.55562,-7.50332 -48.90625,-45.71875c0.7359,-43.30788 54.625,-56.40624 54.625,-56.40625l78.9375,-0.375z"
       id="path2221" />
  </g>
</svg>
